HIERARCHY
ROOT Hips
{
	OFFSET	0.000000	0.000000	0.000000
	CHANNELS 6 Xposition Yposition Zposition Zrotation Xrotation Yrotation
	JOINT LeftHip
	{
		OFFSET	4.740440	-3.195970	-0.322709
		CHANNELS 3 Zrotation Xrotation Yrotation
		JOINT LeftKnee
		{
			OFFSET	-1.605680	-15.592300	1.005510
			CHANNELS 3 Zrotation Xrotation Yrotation
			JOINT LeftAnkle
			{
				OFFSET	-0.632401	-16.421000	-1.413730
				CHANNELS 3 Zrotation Xrotation Yrotation
				End Site
				{
					OFFSET	0.008423	-3.933000	-2.776750
				}
			}
		}
	}
	JOINT RightHip
	{
		OFFSET	-4.740440	-3.195970	-0.322709
		CHANNELS 3 Zrotation Xrotation Yrotation
		JOINT RightKnee
		{
			OFFSET	1.605680	-15.592300	1.005510
			CHANNELS 3 Zrotation Xrotation Yrotation
			JOINT RightAnkle
			{
				OFFSET	0.632401	-16.421000	-1.413730
				CHANNELS 3 Zrotation Xrotation Yrotation
				End Site
				{
					OFFSET	-0.008423	-3.933000	-2.776750
				}
			}
		}
	}
	JOINT Chest
	{
		OFFSET	0.000000	3.468200	0.078401
		CHANNELS 3 Zrotation Xrotation Yrotation
		JOINT LeftCollar
		{
			OFFSET	3.857650	15.070700	-0.011583
			CHANNELS 3 Zrotation Xrotation Yrotation
			JOINT LeftShoulder
			{
				OFFSET	3.979720	-1.940530	-0.165223
				CHANNELS 3 Zrotation Xrotation Yrotation
				JOINT LeftElbow
				{
					OFFSET	0.615844	-10.986600	-0.673886
					CHANNELS 3 Zrotation Xrotation Yrotation
					JOINT LeftWrist
					{
						OFFSET	0.826843	-10.854500	1.034220
						CHANNELS 3 Zrotation Xrotation Yrotation
						End Site
						{
							OFFSET	-1.679080	-8.456540	0.936217
						}
					}
				}
			}
		}
		JOINT RightCollar
		{
			OFFSET	-3.857650	15.070700	-0.011583
			CHANNELS 3 Zrotation Xrotation Yrotation
			JOINT RightShoulder
			{
				OFFSET	-3.979720	-1.940530	-0.165223
				CHANNELS 3 Zrotation Xrotation Yrotation
				JOINT RightElbow
				{
					OFFSET	-0.615845	-10.986600	-0.673886
					CHANNELS 3 Zrotation Xrotation Yrotation
					JOINT RightWrist
					{
						OFFSET	-0.826843	-10.854500	1.034220
						CHANNELS 3 Zrotation Xrotation Yrotation
						End Site
						{
							OFFSET	1.679080	-8.456540	0.936217
						}
					}
				}
			}
		}
		JOINT Neck
		{
			OFFSET	0.000000	15.101400	0.055730
			CHANNELS 3 Zrotation Xrotation Yrotation
			JOINT Head
			{
				OFFSET	0.000000	4.185120	1.488260
				CHANNELS 3 Zrotation Xrotation Yrotation
				End Site
				{
					OFFSET	0.000000	7.773420	-0.106016
				}
			}
		}
	}
}
MOTION
Frames:    13
Frame Time: 0.016667
-12.848054	26.081808	22.771635	-2.373839	-53.394680	4.640263	44.453674	-17.074783	10.690211	-32.671886	53.760227	30.683554	5.576522	16.209120	4.524249	-35.617710	-8.733533	-16.714149	29.817581	65.801750	-20.995487	-1.010400	4.910888	-2.018798	17.854156	43.788765	-11.114081	6.781820	-2.078841	6.729613	30.514013	-15.713663	-11.544378	-46.834011	-13.271679	-33.672752	-19.102510	-26.507952	4.773863	-5.290648	-2.097685	8.477887	-20.948978	-11.800956	-1.926850	-0.573468	-12.005525	23.787331	-41.077236	-19.917757	-6.996755	7.177939	-0.221285	-0.543074	5.639874	1.735810	4.747753	
-12.849530	26.082298	22.770920	-2.373839	-53.394680	4.640263	44.453674	-17.074783	10.690211	-32.671886	53.760227	30.683554	5.576522	16.209120	4.524249	-35.611568	-8.734498	-16.711691	29.813534	65.800278	-20.997728	-1.010400	4.910888	-2.018798	17.854156	43.788765	-11.114081	6.788335	-2.083903	6.723327	30.508894	-15.705368	-11.541591	-46.834011	-13.271679	-33.672752	-19.102510	-26.507952	4.773863	-5.290648	-2.097685	8.477887	-20.945057	-11.800470	-1.940073	-0.567368	-12.015795	23.802553	-41.076729	-19.909498	-6.988312	7.206807	-0.220366	-0.545457	5.638228	1.773660	4.766978	
-12.849530	26.082298	22.770920	-2.373839	-53.394680	4.640263	44.453674	-17.074783	10.690211	-32.671886	53.760227	30.683554	5.576522	16.209120	4.524249	-35.611568	-8.734498	-16.711691	29.813534	65.800278	-20.997728	-1.010400	4.910888	-2.018798	17.854156	43.788765	-11.114081	6.794995	-2.089069	6.716904	30.503662	-15.696892	-11.538739	-46.834011	-13.271679	-33.672752	-19.102510	-26.507952	4.773863	-5.290648	-2.097685	8.477887	-20.941660	-11.800047	-1.951576	-0.561788	-12.025105	23.815847	-41.076260	-19.901974	-6.980659	7.235515	-0.219449	-0.547815	5.623005	1.792046	4.777821	
-12.849530	26.082298	22.770920	-2.373839	-53.394680	4.640263	44.453674	-17.074783	10.690211	-32.671886	53.760227	30.683554	5.576522	16.209120	4.524249	-35.611568	-8.734498	-16.711691	29.813534	65.800278	-20.997728	-1.010400	4.910888	-2.018798	17.854156	43.788765	-11.114081	6.801392	-2.094039	6.710717	30.498640	-15.688736	-11.535991	-46.834011	-13.271679	-33.672752	-19.102510	-26.507952	4.773863	-5.290648	-2.097685	8.477887	-20.938612	-11.799670	-1.961872	-0.561960	-12.026224	23.827002	-41.076279	-19.901525	-6.980109	7.262144	-0.218607	-0.550008	5.596308	1.791178	4.780212	
-12.849530	26.082298	22.770920	-2.373839	-53.394680	4.640263	44.453674	-17.074783	10.690211	-32.671886	53.760227	30.683554	5.576522	16.209120	4.524249	-35.611568	-8.734498	-16.711691	29.813534	65.800278	-20.997728	-1.010400	4.910888	-2.018798	17.854156	43.788765	-11.114081	6.807778	-2.098995	6.704548	30.493618	-15.680603	-11.533250	-46.834011	-13.271679	-33.672752	-19.102510	-26.507952	4.773863	-5.290648	-2.097685	8.477887	-20.938448	-11.799650	-1.962555	-0.561964	-12.026253	23.827738	-41.076279	-19.901525	-6.980109	7.288476	-0.217774	-0.552177	5.579894	1.804399	4.788616	
-12.849530	26.082298	22.770920	-2.373839	-53.394680	4.640263	44.453674	-17.074783	10.690211	-32.671886	53.760227	30.683554	5.576522	16.209120	4.524249	-35.611568	-8.734498	-16.711691	29.813534	65.800278	-20.997728	-1.010400	4.910888	-2.018798	17.854156	43.788765	-11.114081	6.811064	-2.101631	6.701246	30.491068	-15.676278	-11.531768	-46.834011	-13.271679	-33.672752	-19.102510	-26.507952	4.773863	-5.290648	-2.097685	8.477887	-20.938448	-11.799650	-1.962555	-0.561964	-12.026253	23.827738	-41.076279	-19.901525	-6.980109	7.313425	-0.216984	-0.554226	5.576260	1.833929	4.803839	
-12.849530	26.082298	22.770920	-2.373839	-53.394680	4.640263	44.453674	-17.074783	10.690211	-32.671886	53.760227	30.683554	5.576522	16.209120	4.524249	-35.611568	-8.734498	-16.711691	29.813534	65.800278	-20.997728	-1.010400	4.910888	-2.018798	17.854156	43.788765	-11.114081	6.811064	-2.101631	6.701246	30.491068	-15.676278	-11.531768	-46.834011	-13.271679	-33.672752	-19.102510	-26.507952	4.773863	-5.290648	-2.097685	8.477887	-20.938448	-11.799650	-1.962555	-0.561964	-12.026253	23.827738	-41.076279	-19.901525	-6.980109	7.335233	-0.216303	-0.556022	5.573140	1.859862	4.817192	
-12.849530	26.082298	22.770920	-2.373839	-53.394680	4.640263	44.453674	-17.074783	10.690211	-32.671886	53.760227	30.683554	5.576522	16.209120	4.524249	-35.611568	-8.734498	-16.711691	29.813534	65.800278	-20.997728	-1.010400	4.910888	-2.018798	17.854156	43.788765	-11.114081	6.811064	-2.101631	6.701246	30.491068	-15.676278	-11.531768	-46.834011	-13.271679	-33.672752	-19.102510	-26.507952	4.773863	-5.290648	-2.097685	8.477887	-20.938448	-11.799650	-1.962555	-0.561964	-12.026253	23.827738	-41.076279	-19.901525	-6.980109	7.354800	-0.215699	-0.557628	5.569697	1.882258	4.828785	
-12.849530	26.082298	22.770920	-2.373839	-53.394680	4.640263	44.453674	-17.074783	10.690211	-32.671886	53.760227	30.683554	5.576522	16.209120	4.524249	-35.611568	-8.734498	-16.711691	29.813534	65.800278	-20.997728	-1.010400	4.910888	-2.018798	17.854156	43.788765	-11.114081	6.811064	-2.101631	6.701246	30.491068	-15.676278	-11.531768	-46.834011	-13.271679	-33.672752	-19.102510	-26.507952	4.773863	-5.290648	-2.097685	8.477887	-20.938448	-11.799650	-1.962555	-0.561964	-12.026253	23.827738	-41.076279	-19.901525	-6.980109	7.367115	-0.215320	-0.558640	5.571500	1.902020	4.838513	
-12.849530	26.082298	22.770920	-2.373839	-53.394680	4.640263	44.453674	-17.074783	10.690211	-32.671886	53.760227	30.683554	5.576522	16.209120	4.524249	-35.611568	-8.734498	-16.711691	29.813534	65.800278	-20.997728	-1.010400	4.910888	-2.018798	17.854156	43.788765	-11.114081	6.811064	-2.101631	6.701246	30.491068	-15.676278	-11.531768	-46.834011	-13.271679	-33.672752	-19.102510	-26.507952	4.773863	-5.290648	-2.097685	8.477887	-20.938448	-11.799650	-1.962555	-0.561964	-12.026253	23.827738	-41.076279	-19.901525	-6.980109	7.377783	-0.214994	-0.559518	5.561708	1.902996	4.840031	
-12.849530	26.082298	22.770920	-2.373839	-53.394680	4.640263	44.453674	-17.074783	10.690211	-32.671886	53.760227	30.683554	5.576522	16.209120	4.524249	-35.611568	-8.734498	-16.711691	29.813534	65.800278	-20.997728	-1.010400	4.910888	-2.018798	17.854156	43.788765	-11.114081	6.811064	-2.101631	6.701246	30.491068	-15.676278	-11.531768	-46.834011	-13.271679	-33.672752	-19.102510	-26.507952	4.773863	-5.290648	-2.097685	8.477887	-20.938448	-11.799650	-1.962555	-0.561964	-12.026253	23.827738	-41.076279	-19.901525	-6.980109	7.388222	-0.214675	-0.560375	5.551243	1.902664	4.840964	
-12.849530	26.082298	22.770920	-2.373839	-53.394680	4.640263	44.453674	-17.074783	10.690211	-32.671886	53.760227	30.683554	5.576522	16.209120	4.524249	-35.611568	-8.734498	-16.711691	29.813534	65.800278	-20.997728	-1.010400	4.910888	-2.018798	17.854156	43.788765	-11.114081	6.811064	-2.101631	6.701246	30.491068	-15.676278	-11.531768	-46.834011	-13.271679	-33.672752	-19.102510	-26.507952	4.773863	-5.290648	-2.097685	8.477887	-20.938448	-11.799650	-1.962555	-0.561964	-12.026253	23.827738	-41.076279	-19.901525	-6.980109	7.398643	-0.214363	-0.561230	5.540794	1.902337	4.841895	
-12.849530	26.082298	22.770920	-2.373839	-53.394680	4.640263	44.453674	-17.074783	10.690211	-32.671886	53.760227	30.683554	5.576522	16.209120	4.524249	-35.611568	-8.734498	-16.711691	29.813534	65.800278	-20.997728	-1.010400	4.910888	-2.018798	17.854156	43.788765	-11.114081	6.811064	-2.101631	6.701246	30.491068	-15.676278	-11.531768	-46.834011	-13.271679	-33.672752	-19.102510	-26.507952	4.773863	-5.290648	-2.097685	8.477887	-20.938448	-11.799650	-1.962555	-0.561964	-12.026253	23.827738	-41.076279	-19.901525	-6.980109	7.409119	-0.214041	-0.562086	5.530289	1.902002	4.842826	
